<?xml version="1.0" encoding="utf-8"?>
<!-- Uploaded to: SVG Repo, www.svgrepo.com, Generator: SVG Repo Mixer Tools -->
<svg fill="#000000" height="800px" width="800px" version="1.2" baseProfile="tiny" id="Layer_1" xmlns="http://www.w3.org/2000/svg" xmlns:xlink="http://www.w3.org/1999/xlink"
	  viewBox="0 0 256 256" xml:space="preserve">
<path id="XMLID_61_" d="M254.8,251.7c-60.1,0.9-127.1-10.6-175.3-49.3l0,0c-0.2-0.3-0.4-0.6-0.4-1.1c0-0.9,0.7-1.6,1.7-1.6l47.4,0.1
	c2.3,0,4.2-1.9,4.2-4.2c0-1.7-0.8-2.9-2.6-3.8l-42.9-20.5c-0.9-0.5-1.4-1.4-1.4-2.4c0-0.8,0.3-1.5,0.8-2l0,0
	c0,0,56.3-46.2,168.5-45.2V251.7z M150.2,178.4c5.6,0,10.2-4.6,10.2-10.2s-4.6-10.1-10.2-10.1c-5.6,0-10.1,4.5-10.1,10.1
	S144.6,178.4,150.2,178.4z M45.2,43V6.3H0V43H45.2z M254.5,42.6V6.3H93.6v36.2H254.5z M66.5,62.3c-4,1.3-6.9,5.1-6.9,9.6
	s3,8.3,6.9,9.7v62.7c0,8.1-6.5,14.6-14.5,14.6c-8,0-14.5-6.5-14.5-14.6c0-2,0.4-3.9,1.1-5.6l0.6,0.5l5.1,4.7l-3.2-28.6l-8.3,19.3
	c-2.5,5.9-1.9,9.8-1.9,9.8c0,11.7,9.4,21.2,21.1,21.2c11.7,0,21.1-9.5,21.1-21.2V81.5c4-1.4,6.8-5.2,6.8-9.6c0-4.4-2.8-8.3-6.8-9.7
	V6.3h-6.6V62.3z"/>
</svg>